{
  "accessors": [
    {
      "bufferView": 2,
      "componentType": 5126,
      "count": 280,
      "max": [
        0.36970385909080505,
        0.6618042588233948,
        0.11101590096950531
      ],
      "min": [
        -0.35303446650505066,
        -0.6618425846099854,
        -0.11104558408260345
      ],
      "type": "VEC3"
    },
    {
      "bufferView": 2,
      "byteOffset": 3360,
      "componentType": 5126,
      "count": 280,
      "max": [
        1.0,
        1.0,
        1.0
      ],
      "min": [
        -1.0,
        -1.0,
        -1.0
      ],
      "type": "VEC3"
    },
    {
      "bufferView": 1,
      "componentType": 5126,
      "count": 280,
      "max": [
        0.875,
        0.9796488881111145
      ],
      "min": [
        0.125,
        0.0
      ],
      "type": "VEC2"
    },
    {
      "bufferView": 0,
      "componentType": 5125,
      "count": 498,
      "type": "SCALAR"
    },
    {
      "bufferView": 2,
      "byteOffset": 6720,
      "componentType": 5126,
      "count": 3023,
      "max": [
        1.451343297958374,
        0.5038734078407288,
        0.15814848244190216
      ],
      "min": [
        -1.1064609289169312,
        -1.0798711776733398,
        -0.15814842283725739
      ],
      "type": "VEC3"
    },
    {
      "bufferView": 2,
      "byteOffset": 42996,
      "componentType": 5126,
      "count": 3023,
      "max": [
        1.0,
        1.0,
        1.0
      ],
      "min": [
        -1.0,
        -1.0,
        -1.0
      ],
      "type": "VEC3"
    },
    {
      "bufferView": 1,
      "byteOffset": 2240,
      "componentType": 5126,
      "count": 3023,
      "max": [
        1.0,
        1.0000001192092896
      ],
      "min": [
        0.0,
        0.0
      ],
      "type": "VEC2"
    },
    {
      "bufferView": 0,
      "byteOffset": 1992,
      "componentType": 5125,
      "count": 5682,
      "type": "SCALAR"
    },
    {
      "bufferView": 2,
      "byteOffset": 79272,
      "componentType": 5126,
      "count": 296,
      "max": [
        1.2834210395812988,
        -0.028369178995490074,
        0.16067692637443542
      ],
      "min": [
        0.45868414640426636,
        -1.00548255443573,
        -0.16067689657211304
      ],
      "type": "VEC3"
    },
    {
      "bufferView": 2,
      "byteOffset": 82824,
      "componentType": 5126,
      "count": 296,
      "max": [
        0.999752402305603,
        1.0,
        1.0
      ],
      "min": [
        -1.0,
        -1.0,
        -1.0
      ],
      "type": "VEC3"
    },
    {
      "bufferView": 1,
      "byteOffset": 26424,
      "componentType": 5126,
      "count": 296,
      "max": [
        0.625,
        1.0
      ],
      "min": [
        0.375,
        0.0833333358168602
      ],
      "type": "VEC2"
    },
    {
      "bufferView": 0,
      "byteOffset": 24720,
      "componentType": 5125,
      "count": 498,
      "type": "SCALAR"
    },
    {
      "bufferView": 2,
      "byteOffset": 86376,
      "componentType": 5126,
      "count": 60,
      "max": [
        0.13606007397174835,
        0.36277690529823303,
        0.04840261489152908
      ],
      "min": [
        -0.07479721307754517,
        -0.02714650146663189,
        -0.04840262234210968
      ],
      "type": "VEC3"
    },
    {
      "bufferView": 2,
      "byteOffset": 87096,
      "componentType": 5126,
      "count": 60,
      "max": [
        0.999275803565979,
        0.9844919443130493,
        1.0
      ],
      "min": [
        -1.0,
        -1.0,
        -1.0
      ],
      "type": "VEC3"
    },
    {
      "bufferView": 1,
      "byteOffset": 28792,
      "componentType": 5126,
      "count": 60,
      "max": [
        0.8464263677597046,
        1.0
      ],
      "min": [
        0.125,
        0.0
      ],
      "type": "VEC2"
    },
    {
      "bufferView": 0,
      "byteOffset": 26712,
      "componentType": 5125,
      "count": 108,
      "type": "SCALAR"
    },
    {
      "bufferView": 2,
      "byteOffset": 87816,
      "componentType": 5126,
      "count": 183,
      "max": [
        0.39894261956214905,
        0.09367161989212036,
        0.03465180844068527
      ],
      "min": [
        -0.03465180844068527,
        -0.2574290335178375,
        -0.08258654922246933
      ],
      "type": "VEC3"
    },
    {
      "bufferView": 2,
      "byteOffset": 90012,
      "componentType": 5126,
      "count": 183,
      "max": [
        1.0,
        1.0,
        1.0
      ],
      "min": [
        -1.0,
        -1.0,
        -1.0
      ],
      "type": "VEC3"
    },
    {
      "bufferView": 1,
      "byteOffset": 29272,
      "componentType": 5126,
      "count": 183,
      "max": [
        1.0,
        1.0
      ],
      "min": [
        0.0,
        0.01000000536441803
      ],
      "type": "VEC2"
    },
    {
      "bufferView": 0,
      "byteOffset": 27144,
      "componentType": 5125,
      "count": 336,
      "type": "SCALAR"
    },
    {
      "bufferView": 2,
      "byteOffset": 92208,
      "componentType": 5126,
      "count": 54,
      "max": [
        0.039467573165893555,
        0.05006527900695801,
        0.025884155184030533
      ],
      "min": [
        -0.09418638795614243,
        -0.25246867537498474,
        -0.02588416077196598
      ],
      "type": "VEC3"
    },
    {
      "bufferView": 2,
      "byteOffset": 92856,
      "componentType": 5126,
      "count": 54,
      "max": [
        0.9999991059303284,
        1.0,
        1.0
      ],
      "min": [
        -1.0,
        -0.868450403213501,
        -1.0
      ],
      "type": "VEC3"
    },
    {
      "bufferView": 1,
      "byteOffset": 30736,
      "componentType": 5126,
      "count": 54,
      "max": [
        0.875,
        1.0
      ],
      "min": [
        0.125,
        0.0
      ],
      "type": "VEC2"
    },
    {
      "bufferView": 0,
      "byteOffset": 28488,
      "componentType": 5125,
      "count": 96,
      "type": "SCALAR"
    },
    {
      "bufferView": 2,
      "byteOffset": 93504,
      "componentType": 5126,
      "count": 236,
      "max": [
        0.05497639998793602,
        0.16500000655651093,
        0.05497640371322632
      ],
      "min": [
        -0.05497639998793602,
        -0.16500002145767212,
        -0.05497640371322632
      ],
      "type": "VEC3"
    },
    {
      "bufferView": 2,
      "byteOffset": 96336,
      "componentType": 5126,
      "count": 236,
      "max": [
        0.9238797426223755,
        1.0,
        0.9238796234130859
      ],
      "min": [
        -0.9238798022270203,
        -1.0,
        -0.9238796234130859
      ],
      "type": "VEC3"
    },
    {
      "bufferView": 1,
      "byteOffset": 31168,
      "componentType": 5126,
      "count": 236,
      "max": [
        1.0,
        1.0
      ],
      "min": [
        0.0,
        0.01000000536441803
      ],
      "type": "VEC2"
    },
    {
      "bufferView": 0,
      "byteOffset": 28872,
      "componentType": 5125,
      "count": 420,
      "type": "SCALAR"
    },
    {
      "bufferView": 2,
      "byteOffset": 99168,
      "componentType": 5126,
      "count": 269,
      "max": [
        0.36970385909080505,
        0.6618042588233948,
        0.11101590096950531
      ],
      "min": [
        -0.35303446650505066,
        -0.6618425846099854,
        -0.11104558408260345
      ],
      "type": "VEC3"
    },
    {
      "bufferView": 2,
      "byteOffset": 102396,
      "componentType": 5126,
      "count": 269,
      "max": [
        1.0,
        1.0,
        1.0
      ],
      "min": [
        -1.0,
        -1.0,
        -1.0
      ],
      "type": "VEC3"
    },
    {
      "bufferView": 1,
      "byteOffset": 33056,
      "componentType": 5126,
      "count": 269,
      "max": [
        0.875,
        0.9796488881111145
      ],
      "min": [
        0.125,
        0.0
      ],
      "type": "VEC2"
    },
    {
      "bufferView": 0,
      "byteOffset": 30552,
      "componentType": 5125,
      "count": 477,
      "type": "SCALAR"
    },
    {
      "bufferView": 2,
      "byteOffset": 105624,
      "componentType": 5126,
      "count": 552,
      "max": [
        0.0986638069152832,
        0.6837040185928345,
        0.05497637763619423
      ],
      "min": [
        -0.32086697220802307,
        0.46110326051712036,
        -0.0549764558672905
      ],
      "type": "VEC3"
    },
    {
      "bufferView": 2,
      "byteOffset": 112248,
      "componentType": 5126,
      "count": 552,
      "max": [
        1.0,
        0.9238797426223755,
        0.9238802194595337
      ],
      "min": [
        -1.0,
        -0.923879861831665,
        -0.9238800406455994
      ],
      "type": "VEC3"
    },
    {
      "bufferView": 1,
      "byteOffset": 35208,
      "componentType": 5126,
      "count": 552,
      "max": [
        1.0,
        1.0
      ],
      "min": [
        0.0,
        0.01000000536441803
      ],
      "type": "VEC2"
    },
    {
      "bufferView": 0,
      "byteOffset": 32460,
      "componentType": 5125,
      "count": 972,
      "type": "SCALAR"
    },
    {
      "bufferView": 2,
      "byteOffset": 118872,
      "componentType": 5126,
      "count": 1194,
      "max": [
        1.223279356956482,
        0.5456170439720154,
        0.15814849734306335
      ],
      "min": [
        -0.8895571827888489,
        0.05885641276836395,
        -0.15814854204654694
      ],
      "type": "VEC3"
    },
    {
      "bufferView": 2,
      "byteOffset": 133200,
      "componentType": 5126,
      "count": 1194,
      "max": [
        1.0,
        1.0,
        1.0
      ],
      "min": [
        -1.0,
        -1.0,
        -1.0
      ],
      "type": "VEC3"
    },
    {
      "bufferView": 1,
      "byteOffset": 39624,
      "componentType": 5126,
      "count": 1194,
      "max": [
        1.0,
        1.0
      ],
      "min": [
        0.0,
        0.0
      ],
      "type": "VEC2"
    },
    {
      "bufferView": 0,
      "byteOffset": 36348,
      "componentType": 5125,
      "count": 2256,
      "type": "SCALAR"
    },
    {
      "bufferView": 2,
      "byteOffset": 147528,
      "componentType": 5126,
      "count": 320,
      "max": [
        1.0978749990463257,
        0.4373380243778229,
        0.0819161906838417
      ],
      "min": [
        0.20891299843788147,
        0.26814261078834534,
        -0.08380556106567383
      ],
      "type": "VEC3"
    },
    {
      "bufferView": 2,
      "byteOffset": 151368,
      "componentType": 5126,
      "count": 320,
      "max": [
        1.0,
        0.9867025017738342,
        0.9780164957046509
      ],
      "min": [
        -1.0,
        -0.9939476847648621,
        -0.923879861831665
      ],
      "type": "VEC3"
    },
    {
      "bufferView": 1,
      "byteOffset": 49176,
      "componentType": 5126,
      "count": 320,
      "max": [
        1.0,
        1.0
      ],
      "min": [
        0.0,
        0.01000000536441803
      ],
      "type": "VEC2"
    },
    {
      "bufferView": 0,
      "byteOffset": 45372,
      "componentType": 5125,
      "count": 564,
      "type": "SCALAR"
    },
    {
      "bufferView": 2,
      "byteOffset": 155208,
      "componentType": 5126,
      "count": 208,
      "max": [
        0.07530530542135239,
        0.1692381054162979,
        0.07530531287193298
      ],
      "min": [
        -0.23661483824253082,
        -0.1692381054162979,
        -0.08244623243808746
      ],
      "type": "VEC3"
    },
    {
      "bufferView": 2,
      "byteOffset": 157704,
      "componentType": 5126,
      "count": 208,
      "max": [
        0.9994642734527588,
        1.0,
        0.9994643330574036
      ],
      "min": [
        -0.9994642734527588,
        -1.0,
        -0.999464213848114
      ],
      "type": "VEC3"
    },
    {
      "bufferView": 1,
      "byteOffset": 51736,
      "componentType": 5126,
      "count": 208,
      "max": [
        1.0,
        1.0
      ],
      "min": [
        0.01000000536441803,
        0.01000000536441803
      ],
      "type": "VEC2"
    },
    {
      "bufferView": 0,
      "byteOffset": 47628,
      "componentType": 5125,
      "count": 384,
      "type": "SCALAR"
    }
  ],
  "asset": {
    "extras": {
      "author": "D.U. (https://sketchfab.com/D.U.)",
      "license": "CC-BY-4.0 (http://creativecommons.org/licenses/by/4.0/)",
      "source": "https://sketchfab.com/3d-models/low-poly-desert-eagle-l5-2525b4ded09a418aa171b061d0abc0b0",
      "title": "low-poly Desert Eagle L5"
    },
    "generator": "Sketchfab-15.36.0",
    "version": "2.0"
  },
  "bufferViews": [
    {
      "buffer": 0,
      "byteLength": 49164,
      "name": "floatBufferViews",
      "target": 34963
    },
    {
      "buffer": 0,
      "byteLength": 53400,
      "byteOffset": 49164,
      "byteStride": 8,
      "name": "floatBufferViews",
      "target": 34962
    },
    {
      "buffer": 0,
      "byteLength": 160200,
      "byteOffset": 102564,
      "byteStride": 12,
      "name": "floatBufferViews",
      "target": 34962
    }
  ],
  "buffers": [
    {
      "byteLength": 262764,
      "uri": "scene.bin"
    }
  ],
  "materials": [
    {
      "doubleSided": true,
      "name": "material",
      "pbrMetallicRoughness": {
        "baseColorFactor": [
          0.031896,
          0.031896,
          0.031896,
          1.0
        ],
        "roughnessFactor": 0.3
      }
    },
    {
      "doubleSided": true,
      "name": "material_1",
      "pbrMetallicRoughness": {
        "baseColorFactor": [
          0.0,
          0.0,
          0.0,
          1.0
        ],
        "metallicFactor": 0.0,
        "roughnessFactor": 0.7
      }
    },
    {
      "doubleSided": true,
      "name": "material_2",
      "pbrMetallicRoughness": {
        "roughnessFactor": 0.3
      }
    },
    {
      "doubleSided": true,
      "name": "material_3",
      "pbrMetallicRoughness": {
        "baseColorFactor": [
          0.450786,
          0.21586,
          0.0,
          1.0
        ],
        "roughnessFactor": 0.3
      }
    }
  ],
  "meshes": [
    {
      "name": "Object_0",
      "primitives": [
        {
          "attributes": {
            "NORMAL": 1,
            "POSITION": 0,
            "TEXCOORD_0": 2
          },
          "indices": 3,
          "material": 0,
          "mode": 4
        }
      ]
    },
    {
      "name": "Object_1",
      "primitives": [
        {
          "attributes": {
            "NORMAL": 5,
            "POSITION": 4,
            "TEXCOORD_0": 6
          },
          "indices": 7,
          "material": 0,
          "mode": 4
        }
      ]
    },
    {
      "name": "Object_2",
      "primitives": [
        {
          "attributes": {
            "NORMAL": 9,
            "POSITION": 8,
            "TEXCOORD_0": 10
          },
          "indices": 11,
          "material": 1,
          "mode": 4
        }
      ]
    },
    {
      "name": "Object_3",
      "primitives": [
        {
          "attributes": {
            "NORMAL": 13,
            "POSITION": 12,
            "TEXCOORD_0": 14
          },
          "indices": 15,
          "material": 2,
          "mode": 4
        }
      ]
    },
    {
      "name": "Object_4",
      "primitives": [
        {
          "attributes": {
            "NORMAL": 17,
            "POSITION": 16,
            "TEXCOORD_0": 18
          },
          "indices": 19,
          "material": 0,
          "mode": 4
        }
      ]
    },
    {
      "name": "Object_5",
      "primitives": [
        {
          "attributes": {
            "NORMAL": 21,
            "POSITION": 20,
            "TEXCOORD_0": 22
          },
          "indices": 23,
          "material": 0,
          "mode": 4
        }
      ]
    },
    {
      "name": "Object_6",
      "primitives": [
        {
          "attributes": {
            "NORMAL": 25,
            "POSITION": 24,
            "TEXCOORD_0": 26
          },
          "indices": 27,
          "material": 3,
          "mode": 4
        }
      ]
    },
    {
      "name": "Object_7",
      "primitives": [
        {
          "attributes": {
            "NORMAL": 29,
            "POSITION": 28,
            "TEXCOORD_0": 30
          },
          "indices": 31,
          "material": 0,
          "mode": 4
        }
      ]
    },
    {
      "name": "Object_8",
      "primitives": [
        {
          "attributes": {
            "NORMAL": 33,
            "POSITION": 32,
            "TEXCOORD_0": 34
          },
          "indices": 35,
          "material": 3,
          "mode": 4
        }
      ]
    },
    {
      "name": "Object_9",
      "primitives": [
        {
          "attributes": {
            "NORMAL": 37,
            "POSITION": 36,
            "TEXCOORD_0": 38
          },
          "indices": 39,
          "material": 0,
          "mode": 4
        }
      ]
    },
    {
      "name": "Object_10",
      "primitives": [
        {
          "attributes": {
            "NORMAL": 41,
            "POSITION": 40,
            "TEXCOORD_0": 42
          },
          "indices": 43,
          "material": 2,
          "mode": 4
        }
      ]
    },
    {
      "name": "Object_11",
      "primitives": [
        {
          "attributes": {
            "NORMAL": 45,
            "POSITION": 44,
            "TEXCOORD_0": 46
          },
          "indices": 47,
          "material": 0,
          "mode": 4
        }
      ]
    }
  ],
  "nodes": [
    {
      "children": [
        1
      ],
      "matrix": [
        1.0,
        0.0,
        0.0,
        0.0,
        0.0,
        2.220446049250313e-16,
        -1.0,
        0.0,
        0.0,
        1.0,
        2.220446049250313e-16,
        0.0,
        0.0,
        0.0,
        0.0,
        1.0
      ],
      "name": "Sketchfab_model"
    },
    {
      "children": [
        2
      ],
      "name": "root"
    },
    {
      "children": [
        3,
        5,
        8,
        10,
        12,
        14,
        16,
        19
      ],
      "matrix": [
        1.0,
        0.0,
        0.0,
        0.0,
        0.0,
        2.220446049250313e-16,
        1.0,
        0.0,
        0.0,
        -1.0,
        2.220446049250313e-16,
        0.0,
        0.0,
        0.0,
        0.0,
        1.0
      ],
      "name": "GLTF_SceneRootNode"
    },
    {
      "children": [
        4
      ],
      "matrix": [
        -0.9999999999999885,
        0.0,
        1.5099580252808577e-07,
        0.0,
        -0.0,
        1.0,
        0.0,
        0.0,
        -1.5099580252808577e-07,
        -0.0,
        -0.9999999999999885,
        0.0,
        -0.8346111178398132,
        -0.3957144021987915,
        0.0,
        1.0
      ],
      "name": "Cube_0"
    },
    {
      "mesh": 0,
      "name": "Object_4"
    },
    {
      "children": [
        6,
        7
      ],
      "matrix": [
        -0.9999999999999885,
        0.0,
        1.5099580252808577e-07,
        0.0,
        0.0,
        1.0,
        0.0,
        0.0,
        -1.5099580252808577e-07,
        0.0,
        -0.9999999999999885,
        0.0,
        0.0037852469831705093,
        0.0438280925154686,
        0.0,
        1.0
      ],
      "name": "Cube.003_1"
    },
    {
      "mesh": 1,
      "name": "Object_6"
    },
    {
      "mesh": 2,
      "name": "Object_7"
    },
    {
      "children": [
        9
      ],
      "matrix": [
        -0.9999999999999885,
        0.0,
        1.5099580252808577e-07,
        0.0,
        -0.0,
        1.0,
        0.0,
        0.0,
        -1.5099580252808577e-07,
        0.0,
        -0.9999999999999885,
        0.0,
        -1.172672152519226,
        0.03715020418167114,
        0.0,
        1.0
      ],
      "name": "Cube.004_2"
    },
    {
      "mesh": 3,
      "name": "Object_9"
    },
    {
      "children": [
        11
      ],
      "matrix": [
        -0.9999999999999944,
        7.549790336464297e-08,
        7.549790336464297e-08,
        0.0,
        -7.549790336464297e-08,
        2.7755575615628914e-15,
        -0.9999999999999972,
        0.0,
        -7.549790336464297e-08,
        -0.9999999999999972,
        2.7755575615628914e-15,
        0.0,
        -0.4022672176361084,
        -0.026430275291204453,
        -0.1244373545050621,
        1.0
      ],
      "name": "Cylinder.001_3"
    },
    {
      "mesh": 4,
      "name": "Object_11"
    },
    {
      "children": [
        13
      ],
      "matrix": [
        -0.9999999999999885,
        0.0,
        1.5099580252808577e-07,
        0.0,
        -0.0,
        1.0,
        0.0,
        0.0,
        -1.5099580252808577e-07,
        -0.0,
        -0.9999999999999885,
        0.0,
        -0.4022672176361084,
        -0.026430275291204453,
        0.0,
        1.0
      ],
      "name": "Cube.005_4"
    },
    {
      "mesh": 5,
      "name": "Object_13"
    },
    {
      "children": [
        15
      ],
      "matrix": [
        1.6858739793068622e-07,
        0.9999999999999848,
        -4.371139121043293e-08,
        0.0,
        0.9999999999999848,
        -1.6858739604330708e-07,
        4.371139857962322e-08,
        0.0,
        4.371139121043293e-08,
        -4.371139857962322e-08,
        -0.9999999999999982,
        0.0,
        0.37193968892097473,
        -0.23247352242469788,
        0.0,
        1.0
      ],
      "name": "Cylinder.004_5"
    },
    {
      "mesh": 6,
      "name": "Object_15"
    },
    {
      "children": [
        17,
        18
      ],
      "matrix": [
        0.16899778024390477,
        -0.9856164316165885,
        1.2449799524742755e-07,
        0.0,
        -0.9856164316165885,
        -0.16899778024388623,
        1.4766178344891057e-07,
        0.0,
        -1.2449799524742755e-07,
        -1.4766178344891057e-07,
        -0.9999999999999813,
        0.0,
        0.384187787771225,
        -0.6583490967750549,
        0.0,
        1.0
      ],
      "name": "Cube.001_6"
    },
    {
      "mesh": 7,
      "name": "Object_17"
    },
    {
      "mesh": 8,
      "name": "Object_18"
    },
    {
      "children": [
        20,
        21,
        22
      ],
      "matrix": [
        -0.9999999999999885,
        0.0,
        1.5099580252808577e-07,
        0.0,
        -0.0,
        1.0,
        0.0,
        0.0,
        -1.5099580252808577e-07,
        -0.0,
        -0.9999999999999885,
        0.0,
        0.0,
        0.0,
        0.0,
        1.0
      ],
      "name": "Cube.008_8"
    },
    {
      "mesh": 9,
      "name": "Object_20"
    },
    {
      "mesh": 10,
      "name": "Object_21"
    },
    {
      "children": [
        23
      ],
      "matrix": [
        0.9994642335447314,
        0.032729892527209814,
        0.0,
        0.0,
        0.0,
        1.1102230246251565e-16,
        0.9999999999999999,
        0.0,
        0.032729892527209814,
        -0.9994642335447314,
        1.1102230246251565e-16,
        0.0,
        0.9735292196273804,
        0.33300668001174927,
        0.0,
        1.0
      ],
      "name": "Cylinder_7"
    },
    {
      "mesh": 11,
      "name": "Object_23"
    }
  ],
  "scene": 0,
  "scenes": [
    {
      "name": "Sketchfab_Scene",
      "nodes": [
        0
      ]
    }
  ]
}
